<?xml version="1.0" encoding="UTF-8" standalone="no"?>
<svg width="512px" height="512px" viewBox="0 0 512 512" version="1.1" xmlns="http://www.w3.org/2000/svg" xmlns:xlink="http://www.w3.org/1999/xlink" xmlns:sketch="http://www.bohemiancoding.com/sketch/ns">
    <!-- Generator: Sketch 3.4 (15575) - http://www.bohemiancoding.com/sketch -->
    <title>icon</title>
    <desc>Created with Sketch.</desc>
    <defs></defs>
    <g id="Plugin-Icons" stroke="none" stroke-width="1" fill="none" fill-rule="evenodd" sketch:type="MSPage">
        <g id="icon" sketch:type="MSArtboardGroup" fill="#7F8C8D">
            <path d="M338.587363,5.68434189e-14 L193.700679,5.68434189e-14 C181.809934,5.68434189e-14 175.359868,10.2800177 175.767918,17.9399195 C175.968364,26.8096563 184.630496,34.0615072 193.700679,34.0615072 L300.101726,34.0615072 L5.47469999,329.168172 C-1.57670493,335.417793 -1.78430974,347.516142 4.66575709,354.166655 C11.31627,360.609563 23.4074607,360.21583 29.6570815,353.150108 L324.284108,58.0506015 L324.284108,164.881176 C324.083662,173.951358 332.344901,182.212598 341.415084,182.212598 C350.277662,182.212598 358.546061,173.951358 358.338456,164.881176 L358.338456,19.3430417 C358.338456,7.86034781 347.056208,5.68434189e-14 338.587363,5.68434189e-14 L338.587363,5.68434189e-14 L338.587363,5.68434189e-14 Z M482.679423,158.631555 L188.059555,453.73822 L188.059555,347.108092 C188.059555,337.837463 179.798315,329.576223 170.728133,329.576223 C161.865555,329.776669 153.597156,338.045068 153.804761,347.108092 L153.804761,490.634606 C153.804761,504.343683 161.865555,511.996426 174.966134,511.996426 L318.650142,511.996426 C327.720325,512.196872 335.981565,503.935632 335.981565,494.858291 C335.981565,485.995713 327.720325,477.727314 318.650142,477.92776 L211.833886,477.92776 L506.854645,182.627808 C514.314101,174.967906 512.696215,164.079392 507.463142,159.046764 C499.609953,150.978812 489.938432,151.379704 482.679423,158.631555 L482.679423,158.631555 L482.679423,158.631555 Z" id="Shape" sketch:type="MSShapeGroup" transform="translate(255.963038, 256.000000) rotate(-45.000000) translate(-255.963038, -256.000000) "></path>
        </g>
    </g>
</svg>